<svg xmlns="http://www.w3.org/2000/svg" fill="none" stroke-linecap="square" stroke-miterlimit="10" viewBox="0 0 100 100"><clipPath id="a"><path d="M0 0h100v100H0V0z"/></clipPath><g clip-path="url(#a)"><path fill="none" d="M0 0h100v100H0z"/><path fill="#f5d385" fill-rule="evenodd" d="M7.4 50A41.7 41.7 0 0 1 48.5 7.7c11 0 21.4 4.5 29.1 12.4 7.7 8 12 18.7 12 29.9a41.7 41.7 0 0 1-41 42.3c-22.8 0-41.2-19-41.2-42.3z"/><path stroke="#a75215" stroke-linecap="butt" stroke-linejoin="round" stroke-width="12" d="M7.4 50A41.7 41.7 0 0 1 48.5 7.7c11 0 21.4 4.5 29.1 12.4 7.7 8 12 18.7 12 29.9a41.7 41.7 0 0 1-41 42.3c-22.8 0-41.2-19-41.2-42.3z"/><path fill="#ad3b12" fill-rule="evenodd" d="M30.6 36.4c0-3.3 2.9-6 6.5-6 3.5 0 6.4 2.7 6.4 6s-2.9 5.9-6.4 5.9c-3.6 0-6.5-2.6-6.5-6z"/><path stroke="#ad3b12" stroke-linecap="butt" stroke-linejoin="round" d="M30.6 36.4c0-3.3 2.9-6 6.5-6 3.5 0 6.4 2.7 6.4 6s-2.9 5.9-6.4 5.9c-3.6 0-6.5-2.6-6.5-6z"/><path fill="#ad3b12" fill-rule="evenodd" d="M53.5 36.4c0-3.3 3-6 6.5-6 3.6 0 6.5 2.7 6.5 6s-3 5.9-6.5 5.9c-3.6 0-6.5-2.6-6.5-6z"/><path stroke="#ad3b12" stroke-linecap="butt" stroke-linejoin="round" d="M53.5 36.4c0-3.3 3-6 6.5-6 3.6 0 6.5 2.7 6.5 6s-3 5.9-6.5 5.9c-3.6 0-6.5-2.6-6.5-6z"/><path fill="#ad3b12" fill-rule="evenodd" d="M18.5 56c0-3.4 2.9-6 6.4-6 3.6 0 6.5 2.6 6.5 6 0 3.2-2.9 5.8-6.5 5.8-3.5 0-6.4-2.6-6.4-5.9z"/><path stroke="#ad3b12" stroke-linecap="butt" stroke-linejoin="round" d="M18.5 56c0-3.4 2.9-6 6.4-6 3.6 0 6.5 2.6 6.5 6 0 3.2-2.9 5.8-6.5 5.8-3.5 0-6.4-2.6-6.4-5.9z"/><path fill="#ad3b12" fill-rule="evenodd" d="M26.2 67c0-3.2 2.9-5.8 6.5-5.8S39 63.8 39 67c0 3.2-2.8 5.9-6.4 5.9-3.6 0-6.5-2.7-6.5-6z"/><path stroke="#ad3b12" stroke-linecap="butt" stroke-linejoin="round" d="M26.2 67c0-3.2 2.9-5.8 6.5-5.8S39 63.8 39 67c0 3.2-2.8 5.9-6.4 5.9-3.6 0-6.5-2.7-6.5-6z"/><path fill="#ad3b12" fill-rule="evenodd" d="M39.1 71.1c0-3.2 3-5.9 6.5-5.9 3.6 0 6.5 2.7 6.5 6 0 3.2-2.9 5.8-6.5 5.8s-6.5-2.6-6.5-5.9z"/><path stroke="#ad3b12" stroke-linecap="butt" stroke-linejoin="round" d="M39.1 71.1c0-3.2 3-5.9 6.5-5.9 3.6 0 6.5 2.7 6.5 6 0 3.2-2.9 5.8-6.5 5.8s-6.5-2.6-6.5-5.9z"/><path fill="#ad3b12" fill-rule="evenodd" d="M52.1 67.7c0-3.2 2.9-5.9 6.5-5.9 3.5 0 6.4 2.7 6.4 6 0 3.2-2.9 5.8-6.4 5.8-3.6 0-6.5-2.6-6.5-5.9z"/><path stroke="#ad3b12" stroke-linecap="butt" stroke-linejoin="round" d="M52.1 67.7c0-3.2 2.9-5.9 6.5-5.9 3.5 0 6.4 2.7 6.4 6 0 3.2-2.9 5.8-6.4 5.8-3.6 0-6.5-2.6-6.5-5.9z"/><path fill="#ad3b12" fill-rule="evenodd" d="M61.8 59.1c0-3.2 2.9-5.9 6.5-5.9 3.5 0 6.4 2.7 6.4 6 0 3.2-2.9 5.9-6.4 5.9-3.6 0-6.5-2.7-6.5-6z"/><path stroke="#ad3b12" stroke-linecap="butt" stroke-linejoin="round" d="M61.8 59.1c0-3.2 2.9-5.9 6.5-5.9 3.5 0 6.4 2.7 6.4 6 0 3.2-2.9 5.9-6.4 5.9-3.6 0-6.5-2.7-6.5-6z"/><path fill="none" d="M43.5 51.6c0-.9.7-1.6 1.5-1.6.4 0 .8.2 1 .5.3.3.5.7.5 1.1 0 1-.7 1.6-1.5 1.6s-1.5-.7-1.5-1.6z"/><path stroke="#000" stroke-linecap="butt" stroke-linejoin="round" d="M43.5 51.6c0-.9.7-1.6 1.5-1.6.4 0 .8.2 1 .5.3.3.5.7.5 1.1 0 1-.7 1.6-1.5 1.6s-1.5-.7-1.5-1.6z"/><path fill="none" d="M50.6 51.6c0-.9.7-1.6 1.5-1.6.4 0 .7.2 1 .5.3.3.4.7.4 1.1 0 1-.6 1.6-1.4 1.6-.8 0-1.5-.7-1.5-1.6z"/><path stroke="#000" stroke-linecap="butt" stroke-linejoin="round" d="M50.6 51.6c0-.9.7-1.6 1.5-1.6.4 0 .7.2 1 .5.3.3.4.7.4 1.1 0 1-.6 1.6-1.4 1.6-.8 0-1.5-.7-1.5-1.6z"/></g></svg>